<?xml version="1.0" encoding="UTF-8"?>
<svg width="512px" height="512px" viewBox="0 0 512 512" version="1.1" xmlns="http://www.w3.org/2000/svg" xmlns:xlink="http://www.w3.org/1999/xlink">
    <!-- Generator: Sketch 52.6 (67491) - http://www.bohemiancoding.com/sketch -->
    <title>plus</title>
    <desc>Created with Sketch.</desc>
    <g id="Page-1" stroke="none" stroke-width="1" fill="none" fill-rule="evenodd">
        <g id="plus" fill="#000000">
            <path d="M492,236 L276,236 L276,20 C276,8.954 267.046,0 256,0 C244.954,0 236,8.954 236,20 L236,236 L20,236 C8.954,236 0,244.954 0,256 C0,267.046 8.954,276 20,276 L236,276 L236,492 C236,503.046 244.954,512 256,512 C267.046,512 276,503.046 276,492 L276,276 L492,276 C503.046,276 512,267.046 512,256 C512,244.954 503.046,236 492,236 Z" id="Path"></path>
        </g>
    </g>
</svg>